<?xml version="1.0" encoding="UTF-8"?>
<!DOCTYPE svg PUBLIC "-//W3C//DTD SVG 1.1//EN" "http://www.w3.org/Graphics/SVG/1.1/DTD/svg11.dtd">
<!-- Creator: CorelDRAW X8 -->
<svg xmlns="http://www.w3.org/2000/svg" xml:space="preserve" width="246.944mm" height="100.862mm" version="1.1" style="shape-rendering:geometricPrecision; text-rendering:geometricPrecision; image-rendering:optimizeQuality; fill-rule:evenodd; clip-rule:evenodd"
viewBox="0 0 24694 10086"
 xmlns:xlink="http://www.w3.org/1999/xlink">
 <defs>
  <style type="text/css">
   <![CDATA[
    .fil0 {fill:#FEFEFE}
   ]]>
  </style>
 </defs>
 <g id="Слой_x0020_1">
  <metadata id="CorelCorpID_0Corel-Layer"/>
  <g id="_1635084327040">
   <path class="fil0" d="M734 2515c-134,224 -292,529 -387,777 -171,451 -280,948 -313,1450l0 634c43,640 216,1254 503,1828 1113,2226 3638,3285 6019,2742 475,-108 1327,-467 1747,-753 121,-82 416,-254 465,-391l-3802 0 0 -1020 0 -42c155,-102 346,-269 488,-402 427,-396 961,-788 1422,-1250 586,-588 1233,-1168 1600,-1978l18 -33c179,-379 236,-1096 -14,-1460 -374,-547 -1515,-543 -1870,225 -182,393 -171,736 -171,1302l-1301 0c-223,-955 81,-2049 753,-2569 75,-58 104,-91 191,-151 536,-370 1443,-517 2091,-417 123,18 237,52 355,55 -187,-163 -559,-383 -776,-491 -670,-334 -1380,-522 -2090,-571l-748 0c-1702,117 -3300,1046 -4180,2515z"/>
   <path class="fil0" d="M11748 3528c0,805 -56,2517 55,3217 173,1093 1187,1749 2274,1749 653,0 1091,26 1731,-187 196,-65 803,-313 803,-498l0 -3117 -2363 0 0 1165 1028 0 0 1370c-347,29 -196,102 -959,102 -1022,0 -1233,-871 -1233,-1746 0,-821 -95,-2198 232,-2816 405,-762 1778,-860 2059,217 18,72 68,361 72,509l1267 0c0,-962 -239,-1785 -1213,-2178 -882,-355 -2294,-254 -3043,491 -358,356 -710,1022 -710,1722z"/>
   <path class="fil0" d="M20173 2877c0,614 -25,1128 488,1636 633,626 1290,685 2070,1046 186,86 333,184 466,322 503,521 156,1551 -797,1551 -478,0 -887,-196 -1024,-586 -137,-388 -107,-487 -107,-887l-1267 0c0,666 -42,1174 381,1743 78,105 147,180 244,270 148,138 434,301 654,373 929,305 2313,188 2983,-555l118 -157c175,-239 249,-449 278,-683l0 -1093c0,-332 -311,-744 -522,-951 -234,-232 -589,-413 -926,-547 -185,-73 -339,-120 -529,-190 -203,-76 -344,-135 -538,-215 -927,-384 -712,-1244 -416,-1508 406,-362 1499,-463 1685,581 107,596 -392,501 1246,501l0 -490c-10,-429 -77,-850 -420,-1248 -46,-53 -76,-73 -124,-116 -933,-857 -3065,-695 -3702,416 -102,179 -241,512 -241,787z"/>
   <polygon class="fil0" points="17810,8391 19112,8391 19112,1233 17810,1233 "/>
   <path class="fil0" d="M7658 6973c-152,119 -443,323 -534,459l2809 0c522,-779 709,-1882 619,-2811 -24,-248 -51,-454 -98,-655 -24,-102 -152,-592 -209,-644 -76,-80 -14,-26 -62,284 -61,385 -141,595 -307,926 -470,938 -1424,1812 -2218,2441z"/>
   <polygon class="fil0" points="7021,1031 6987,1062 "/>
   <polygon class="fil0" points="1156,1918 1130,1945 "/>
   <polygon class="fil0" points="1026,2089 993,2124 "/>
   <polygon class="fil0" points="512,2945 480,2992 "/>
   <polygon class="fil0" points="10275,3350 10245,3322 "/>
   <polygon class="fil0" points="8494,4077 8476,4110 "/>
   <polygon class="fil0" points="9203,5514 9179,5554 "/>
   <polygon class="fil0" points="10481,6074 10481,6028 "/>
   <polygon class="fil0" points="137,6087 137,6130 "/>
   <polygon class="fil0" points="4966,7782 4966,7740 "/>
   <polygon class="fil0" points="7706,9526 7690,9556 "/>
  </g>
 </g>
</svg>
