<?xml version="1.0" encoding="UTF-8"?>
<!DOCTYPE svg PUBLIC "-//W3C//DTD SVG 1.1//EN" "http://www.w3.org/Graphics/SVG/1.1/DTD/svg11.dtd">
<!-- Creator: CorelDRAW X8 -->
<svg xmlns="http://www.w3.org/2000/svg" xml:space="preserve" width="200.406mm" height="200.152mm" version="1.1" style="shape-rendering:geometricPrecision; text-rendering:geometricPrecision; image-rendering:optimizeQuality; fill-rule:evenodd; clip-rule:evenodd"
viewBox="0 0 20041 20015"
 xmlns:xlink="http://www.w3.org/1999/xlink">
 <defs>
  <style type="text/css">
   <![CDATA[
    .fil0 {fill:#FEFEFE}
   ]]>
  </style>
 </defs>
 <g id="Слой_x0020_1">
  <metadata id="CorelCorpID_0Corel-Layer"/>
  <g id="_2804567177152">
   <path class="fil0" d="M14845 3254c949,-84 1827,559 1935,1524 113,1016 -618,1845 -1520,1945 -1299,145 -2651,-1225 -1551,-2859 146,-216 672,-568 1136,-610l0 0zm-45 -3255l464 0c614,29 1210,172 1762,403 476,198 1314,746 1627,1124 448,541 819,1006 1073,1714 244,678 397,1466 268,2394 -214,1540 -1319,2703 -2201,3902 -998,1347 -1598,2311 -2057,3677l-346 1631c-144,404 -520,193 -579,-299 -206,-1045 -581,-1721 -1019,-2654 -255,-544 -921,-1619 -1341,-2152l-218 -290c-218,-337 -739,-955 -1031,-1389 -73,-109 -262,-410 -339,-480 -67,-187 -229,-408 -327,-618 -339,-726 -519,-1420 -462,-2266 114,-1710 1015,-3146 2457,-4020 305,-185 612,-313 977,-435 430,-144 864,-222 1292,-242l0 0z"/>
   <polygon class="fil0" points="3023,19931 15104,19931 9115,13856 9024,13948 7227,15735 "/>
   <path class="fil0" d="M107 18716c5,131 25,229 95,394 44,103 76,162 137,251 164,238 175,247 403,408 363,258 568,247 1004,247l7338 -7324 1625 -1616 958 -970 -161 -214c-261,-403 -867,-1127 -1241,-1666 -728,715 -1877,1885 -2097,2106l-8061 8053 0 331 0 0z"/>
   <path class="fil0" d="M9715 13260c1701,1726 6285,6301 6675,6671 426,0 626,13 983,-232 263,-180 431,-368 561,-674 87,-206 130,-425 130,-705l-3870 -3868 -2505 -2504c-99,-98 -208,-214 -322,-333l-1304 1297 -348 348z"/>
   <path class="fil0" d="M18064 17211l0 -6876c-984,1380 -1672,2931 -2004,4844l2004 2032z"/>
   <path class="fil0" d="M10115 1982l-8504 0 -14 0c-375,-1 -571,2 -906,232 -64,44 -122,88 -175,134 -26,22 -50,44 -74,68l-7 7c-24,24 -47,49 -69,74 -46,54 -90,112 -134,176 -229,334 -232,531 -232,906l0 14 0 9097 0 0 0 4315 7632 -7625c211,-211 1336,-1341 2118,-2119 -1043,-2460 -342,-4416 365,-5279zm-3313 3281l-2570 -6 -1 1044 1482 -1c-351,1445 -2609,1485 -3076,-83 -478,-1604 1408,-2778 2655,-1749l766 -759c-1477,-1341 -3956,-689 -4480,1324 -193,741 -73,1424 238,2005 993,1858 3729,1911 4668,257 309,-546 445,-1303 318,-2032l0 0z"/>
  </g>
 </g>
</svg>
