<?xml version="1.0" encoding="UTF-8"?>
<!DOCTYPE svg PUBLIC "-//W3C//DTD SVG 1.1//EN" "http://www.w3.org/Graphics/SVG/1.1/DTD/svg11.dtd">
<!-- Creator: CorelDRAW X8 -->
<svg xmlns="http://www.w3.org/2000/svg" xml:space="preserve" width="162.052mm" height="169.672mm" version="1.1" style="shape-rendering:geometricPrecision; text-rendering:geometricPrecision; image-rendering:optimizeQuality; fill-rule:evenodd; clip-rule:evenodd"
viewBox="0 0 16205 16967"
 xmlns:xlink="http://www.w3.org/1999/xlink">
 <defs>
  <style type="text/css">
   <![CDATA[
    .fil0 {fill:#FEFEFE}
   ]]>
  </style>
 </defs>
 <g id="Слой_x0020_1">
  <metadata id="CorelCorpID_0Corel-Layer"/>
  <path class="fil0" d="M-1 134l0 16684c0,78 54,132 131,132 1121,0 10439,44 10712,-17 145,-33 70,-20 164,-67 684,-348 658,-612 1024,-1115 37,-50 56,-77 78,-119l411 -708c53,-106 19,-42 75,-122l994 -1639c15,-26 28,-59 32,-67l283 -474c8,-13 39,-58 40,-59l157 -271c22,-40 20,-48 42,-90l1390 -2295c34,-55 47,-76 87,-144l160 -267c66,-121 85,-158 163,-265 52,-71 44,-49 79,-119 28,-57 43,-110 69,-161l76 -155c72,-228 47,-560 -64,-774l-384 -669c-14,-22 -23,-37 -38,-62 -4,-6 -8,-14 -12,-20 -4,-7 -9,-15 -12,-21l-350 -572c-47,-75 -27,-31 -73,-124l-416 -703c-44,-81 -41,-61 -77,-121 -36,-60 -35,-84 -77,-153 -33,-53 -50,-62 -85,-112 -236,-343 -424,-746 -649,-1095l-517 -865c-4,-6 -10,-14 -14,-19 -24,-37 -23,-36 -52,-80l-470 -813c-77,-149 -271,-394 -367,-587l-296 -495c-47,-73 -28,-28 -74,-123l-339 -550c-44,-72 -43,-84 -80,-150 -74,-134 -288,-347 -413,-443 -103,-79 -167,-91 -280,-147 -111,-56 -201,-96 -365,-96l-10532 0c-77,0 -131,55 -131,132l0 0zm5974 6482c-147,-674 320,-1496 1154,-1654 854,-163 1500,464 1636,1147 165,824 -501,1539 -1144,1636 -857,130 -1498,-450 -1646,-1129zm1434 3410c-139,947 -903,4679 -859,4775 127,-61 1476,-2074 1660,-2347 502,-749 2231,-3663 2521,-4386 56,-118 128,-302 154,-395 411,-1472 108,-2999 -988,-4008 -1893,-1742 -4860,-1125 -5904,1218 -692,1555 -158,3446 1127,4383 701,511 1249,740 2272,761l0 0 17 -1zm2667 -1139l-2 2 -6 6 6 -6 2 -2z"/>
 </g>
</svg>
