<?xml version="1.0" encoding="iso-8859-1"?>
<!-- Generator: Adobe Illustrator 19.0.0, SVG Export Plug-In . SVG Version: 6.00 Build 0)  -->
<svg version="1.1" id="Capa_1" xmlns="http://www.w3.org/2000/svg" xmlns:xlink="http://www.w3.org/1999/xlink" x="0px" y="0px"
	 viewBox="0 0 512 512" style="enable-background:new 0 0 512 512;" xml:space="preserve">
<g>
	<g>
		<path d="M504.5,462.013H391.089c-4.143,0-7.5,3.358-7.5,7.5c0,4.142,3.357,7.5,7.5,7.5H497v11.875H15v-11.875h341.911
			c4.143,0,7.5-3.358,7.5-7.5c0-4.142-3.357-7.5-7.5-7.5H211.926v-12.096c0-6.363-5.177-11.539-11.539-11.539h-16.879v-35.57
			c0-7.846-6.384-14.23-14.23-14.23H156.09c-4.143,0-7.5,3.358-7.5,7.5c0,4.142,3.357,7.5,7.5,7.5h12.419v34.8H63.656v-34.8h58.255
			c4.143,0,7.5-3.358,7.5-7.5c0-4.142-3.357-7.5-7.5-7.5H62.887c-7.847,0-14.23,6.384-14.23,14.23v35.57h-16.88
			c-6.362,0-11.539,5.176-11.539,11.539v12.096H7.5c-4.143,0-7.5,3.358-7.5,7.5v26.875c0,4.142,3.357,7.5,7.5,7.5h497
			c4.143,0,7.5-3.358,7.5-7.5v-26.875C512,465.371,508.643,462.013,504.5,462.013z M35.238,453.378h161.688v8.635H35.238V453.378z"
			/>
	</g>
</g>
<g>
	<g>
		<path d="M473.667,17.578H284.379c-19.783,0-35.879,16.095-35.879,35.879c0,11.513-9.366,20.879-20.879,20.879h-66.4V15.612
			c0-4.142-3.357-7.5-7.5-7.5H78.443c-4.143,0-7.5,3.358-7.5,7.5v36.299c0,4.142,3.357,7.5,7.5,7.5s7.5-3.358,7.5-7.5V23.112h60.277
			v51.224h-17.24V62.954c0-4.142-3.357-7.5-7.5-7.5s-7.5,3.358-7.5,7.5v105c0,4.142,3.357,7.5,7.5,7.5s7.5-3.358,7.5-7.5v-7.826
			h17.24v27.237H85.943V86.089c0-4.142-3.357-7.5-7.5-7.5s-7.5,3.358-7.5,7.5v101.275H55.557c-15.363,0-27.861,12.499-27.861,27.861
			c-0.001,14.005,10.387,25.625,23.862,27.571v19.988c0,4.142,3.357,7.5,7.5,7.5h2.54v6.946c0,4.142,3.357,7.5,7.5,7.5
			s7.5-3.358,7.5-7.5v-6.946h3.092l17.711,55.025c2.662,8.268,9.994,13.61,18.681,13.61c8.687,0,16.019-5.342,18.681-13.611
			l17.711-55.024h3.093v6.946c0,4.142,3.357,7.5,7.5,7.5s7.5-3.358,7.5-7.5v-6.946h2.54c4.143,0,7.5-3.358,7.5-7.5v-19.988
			c13.475-1.946,23.862-13.565,23.862-27.57c0-15.363-12.498-27.861-27.861-27.861h-15.387v-27.237h66.4
			c19.784,0,35.879-16.095,35.879-35.879c0-11.513,9.366-20.879,20.879-20.879h189.288c4.143,0,7.5-3.358,7.5-7.5V25.078
			C481.167,20.936,477.81,17.578,473.667,17.578z M120.483,320.712c-0.932,2.895-3.389,3.207-4.401,3.207
			c-1.012,0-3.47-0.313-4.401-3.207l-16.232-50.429h41.267L120.483,320.712z M165.607,255.284L165.607,255.284H66.558v-12.197
			h99.049V255.284z M176.608,202.364c7.092,0,12.861,5.77,12.861,12.861s-5.77,12.861-12.861,12.861H55.557
			c-7.092,0-12.861-5.77-12.861-12.861c0-7.091,5.769-12.861,12.861-12.861H176.608z M227.621,145.127H128.98v-8.597h98.641
			c7.371,0,14.227-2.236,19.932-6.063C244.9,138.952,236.968,145.127,227.621,145.127z M227.621,121.53H128.98v-8.596h98.641
			c7.37,0,14.227-2.236,19.932-6.063C244.9,115.355,236.968,121.53,227.621,121.53z M227.621,97.933H128.98v-8.597h98.641
			c7.371,0,14.227-2.236,19.932-6.063C244.9,91.758,236.968,97.933,227.621,97.933z M466.167,88.369H284.379
			c-7.37,0-14.227,2.236-19.932,6.063c2.653-8.485,10.585-14.66,19.932-14.66h181.788V88.369z M466.167,64.772H284.379
			c-7.37,0-14.227,2.237-19.932,6.063c2.653-8.485,10.585-14.66,19.932-14.66h181.788V64.772z M466.167,41.175H284.379
			c-7.37,0-14.227,2.236-19.932,6.063c2.653-8.485,10.584-14.66,19.932-14.66h181.788V41.175z"/>
	</g>
</g>
<g>
	<g>
		<path d="M101.569,30.783c-4.143,0-7.5,3.358-7.5,7.5v0.659c0,4.142,3.357,7.5,7.5,7.5c4.143,0,7.5-3.358,7.5-7.5v-0.659
			C109.069,34.141,105.712,30.783,101.569,30.783z"/>
	</g>
</g>
<g>
</g>
<g>
</g>
<g>
</g>
<g>
</g>
<g>
</g>
<g>
</g>
<g>
</g>
<g>
</g>
<g>
</g>
<g>
</g>
<g>
</g>
<g>
</g>
<g>
</g>
<g>
</g>
<g>
</g>
</svg>
