<svg xmlns="http://www.w3.org/2000/svg" xmlns:xlink="http://www.w3.org/1999/xlink" preserveAspectRatio="xMidYMid" viewBox="0 0 200 320">
  <defs>
    <style>
      .cls-1 {
        fill: #00a1ef;
        fill-rule: evenodd;
      }
    </style>
  </defs>
  <path d="M130.000,230.000 C109.324,259.991 100.000,280.000 100.000,280.000 C100.000,280.000 90.178,259.136 70.000,230.000 C41.608,189.003 -0.000,140.000 -0.000,100.000 C-0.000,44.772 44.772,-0.000 100.000,-0.000 C155.228,-0.000 200.000,44.772 200.000,100.000 C200.000,140.000 158.152,189.165 130.000,230.000 ZM100.000,40.000 C66.863,40.000 40.000,66.863 40.000,100.000 C40.000,133.137 66.863,160.000 100.000,160.000 C133.137,160.000 160.000,133.137 160.000,100.000 C160.000,66.863 133.137,40.000 100.000,40.000 ZM100.000,140.000 C77.909,140.000 60.000,122.091 60.000,100.000 C60.000,77.909 77.909,60.000 100.000,60.000 C122.091,60.000 140.000,77.909 140.000,100.000 C140.000,122.091 122.091,140.000 100.000,140.000 ZM54.193,236.267 L65.550,253.240 C44.330,257.535 30.000,265.667 30.000,275.000 C30.000,288.807 61.340,300.000 100.000,300.000 C138.660,300.000 170.000,288.807 170.000,275.000 C170.000,265.677 155.699,257.551 134.514,253.253 L145.868,236.285 C172.284,244.126 190.000,258.525 190.000,275.000 C190.000,299.853 149.706,320.000 100.000,320.000 C50.294,320.000 10.000,299.853 10.000,275.000 C10.000,258.513 27.743,244.104 54.193,236.267 Z" class="cls-1"/>
</svg>
