<?xml version="1.0" encoding="UTF-8"?>
<!DOCTYPE svg PUBLIC "-//W3C//DTD SVG 1.1//EN" "http://www.w3.org/Graphics/SVG/1.1/DTD/svg11.dtd">
<!-- Creator: CorelDRAW X8 -->
<svg xmlns="http://www.w3.org/2000/svg" xml:space="preserve" width="135.467mm" height="135.467mm" version="1.1" style="shape-rendering:geometricPrecision; text-rendering:geometricPrecision; image-rendering:optimizeQuality; fill-rule:evenodd; clip-rule:evenodd"
viewBox="0 0 13547 13547"
 xmlns:xlink="http://www.w3.org/1999/xlink">
 <defs>
  <style type="text/css">
   <![CDATA[
    .fil0 {fill:#00BD9C}
    .fil1 {fill:white}
   ]]>
  </style>
 </defs>
 <g id="Слой_x0020_1">
  <metadata id="CorelCorpID_0Corel-Layer"/>
  <circle class="fil0" cx="6773" cy="6773" r="6773"/>
  <g id="_2679840230480">
   <g>
    <path class="fil1" d="M8683 4436c-30,-30 -71,-47 -113,-47 -42,0 -84,17 -114,47 -29,30 -47,71 -47,113 0,42 17,84 47,114 30,29 72,46 114,46 42,0 83,-17 113,-46 30,-30 47,-72 47,-114 0,-42 -17,-83 -47,-113z"/>
   </g>
  </g>
  <g id="_2679840230192">
   <g>
    <path class="fil1" d="M5073 6682l-1283 0c-89,0 -160,72 -160,161l0 1283c0,88 71,160 160,160l1283 0c89,0 161,-72 161,-160l0 -1283c0,-89 -72,-161 -161,-161zm-160 1284l-963 0 0 -963 963 0 0 963z"/>
   </g>
  </g>
  <g id="_2679840227760">
   <g>
    <path class="fil1" d="M10780 5524c-60,-25 -129,-11 -174,34l-1635 1635c0,0 0,0 0,0 0,0 0,0 0,0l-1905 1905c0,0 0,0 0,0 0,0 0,0 0,0l-1000 1000c-45,45 -59,114 -34,174 25,60 83,99 148,99l4539 0c89,0 160,-71 160,-160l0 -4539c0,-65 -39,-123 -99,-148zm-221 4527l-3992 0 612 -612 153 153c32,31 73,47 114,47 41,0 82,-16 113,-47 63,-63 63,-165 0,-227l-153 -153 408 -409 153 153c32,32 73,47 114,47 41,0 82,-15 113,-47 63,-62 63,-164 0,-226l-153 -153 408 -409 154 153c31,32 72,47 113,47 41,0 82,-15 113,-47 63,-62 63,-164 0,-226l-153 -154 409 -408 153 153c31,32 72,47 113,47 41,0 82,-15 113,-47 63,-62 63,-164 0,-227l-153 -153 409 -408 153 153c31,31 72,47 113,47 41,0 82,-16 114,-47 62,-63 62,-164 0,-227l-154 -153 613 -612 0 3992z"/>
   </g>
  </g>
  <g id="_2679840227728">
   <g>
    <path class="fil1" d="M9978 7460c-59,-25 -129,-11 -174,35l-1801 1801c-46,46 -60,114 -35,174 25,60 83,99 148,99l1801 0c89,0 160,-71 160,-160l0 -1801c0,-65 -39,-123 -99,-148zm-221 1789l-1254 0 1254 -1254 0 1254z"/>
   </g>
  </g>
  <g id="_2679840228848">
   <g>
    <path class="fil1" d="M10094 4553c-44,-44 -109,-58 -168,-37l-1095 401c-22,8 -42,21 -59,37l-308 308 -2010 -2011c-30,-30 -71,-47 -114,-47 -42,0 -83,17 -113,47l-2421 2421 -591 0 3125 -3126 1715 1716c63,62 165,62 227,0 63,-63 63,-165 0,-227l-1828 -1829c-63,-62 -164,-62 -227,0l-3513 3513c-46,46 -59,115 -35,175 25,60 84,99 149,99l160 0 0 4218c0,89 72,160 160,160l2550 0c89,0 161,-71 161,-160 0,-89 -72,-160 -161,-160l-2389 0 0 -4058 564 0c42,0 83,-17 113,-47l2354 -2354 1898 1897 -2379 2379 0 -1442 1123 0c88,0 160,-72 160,-161 0,-88 -72,-160 -160,-160l-1283 0c-89,0 -161,72 -161,160l0 1861c0,19 4,36 10,53l-144 144c-254,254 -254,667 0,921 127,127 294,190 460,190 167,0 334,-63 461,-190l1352 -1353c63,-62 63,-164 0,-227 -62,-62 -164,-62 -226,0l-1025 1025 -467 -467 2930 -2931 467 468 -1119 1119c-63,63 -63,165 0,227 62,63 164,63 226,0l1230 -1230c17,-16 30,-36 38,-58l401 -1095c21,-59 7,-125 -38,-169zm-3895 4363l-101 101c-62,62 -145,97 -234,97 -88,0 -171,-35 -233,-97 -63,-62 -97,-145 -97,-234 0,-88 34,-171 97,-233l101 -101 467 467zm3318 -3450l-335 -336 530 -194 -195 530z"/>
   </g>
  </g>
  <g id="_2679840229232">
   <g>
    <path class="fil1" d="M8068 7274c-30,-30 -72,-47 -114,-47 -42,0 -83,17 -113,47 -30,30 -47,71 -47,114 0,42 17,83 47,113 30,30 71,47 113,47 42,0 84,-17 114,-47 29,-30 47,-71 47,-113 0,-43 -18,-84 -47,-114z"/>
   </g>
  </g>
  <g id="_2679840226320">
   <g>
    <path class="fil1" d="M6340 4581c-336,0 -609,274 -609,610 0,336 273,609 609,609 336,0 610,-273 610,-609 0,-336 -274,-610 -610,-610zm0 898c-159,0 -288,-129 -288,-288 0,-160 129,-289 288,-289 159,0 289,129 289,289 0,159 -130,288 -289,288z"/>
   </g>
  </g>
  <g id="_2679840226288">
  </g>
  <g id="_2679840226128">
  </g>
  <g id="_2679840225904">
  </g>
  <g id="_2679840226960">
  </g>
  <g id="_2679840225616">
  </g>
  <g id="_2679840227472">
  </g>
  <g id="_2679840224144">
  </g>
  <g id="_2679840224336">
  </g>
  <g id="_2679840225072">
  </g>
  <g id="_2679840223504">
  </g>
  <g id="_2679840224912">
  </g>
  <g id="_2679840223984">
  </g>
  <g id="_2679840223088">
  </g>
  <g id="_2679840221616">
  </g>
  <g id="_2679840222960">
  </g>
 </g>
</svg>
