<?xml version="1.0" encoding="UTF-8"?>
<!DOCTYPE svg PUBLIC "-//W3C//DTD SVG 1.1//EN" "http://www.w3.org/Graphics/SVG/1.1/DTD/svg11.dtd">
<!-- Creator: CorelDRAW X8 -->
<svg xmlns="http://www.w3.org/2000/svg" xml:space="preserve" width="1600px" height="1600px" version="1.1" style="shape-rendering:geometricPrecision; text-rendering:geometricPrecision; image-rendering:optimizeQuality; fill-rule:evenodd; clip-rule:evenodd"
viewBox="0 0 1600 1600"
 xmlns:xlink="http://www.w3.org/1999/xlink">
 <defs>
  <style type="text/css">
   <![CDATA[
    .fil0 {fill:#00BD9C}
    .fil1 {fill:white}
   ]]>
  </style>
 </defs>
 <g id="Слой_x0020_1">
  <metadata id="CorelCorpID_0Corel-Layer"/>
  <circle class="fil0" cx="800" cy="800" r="800"/>
  <g id="_2806321437952">
   <g>
    <g>
     <circle class="fil1" cx="657" cy="1227" r="43"/>
    </g>
   </g>
   <g>
    <g>
     <circle class="fil1" cx="1047" cy="1227" r="43"/>
    </g>
   </g>
   <g>
    <g>
     <path class="fil1" d="M1259 562c-4,-5 -11,-7 -17,-7l-650 0c-13,0 -22,9 -22,22 0,13 9,22 22,22l624 0 -52 353c-2,22 -22,37 -44,37l-533 0 -97 -553c-7,-32 -33,-54 -65,-54l-50 0c-37,0 -65,28 -65,65 0,13 8,22 21,22 13,0 22,-9 22,-22 0,-13 9,-22 22,-22l50 0c11,0 19,7 21,18l100 559c-24,15 -41,43 -41,74 0,47 39,86 87,86l563 0c13,0 22,-8 22,-21 0,-13 -9,-22 -22,-22l-563 0c-24,0 -44,-20 -44,-43 0,-24 20,-44 44,-44l528 0c44,0 81,-30 87,-74l57 -379c0,-4 -3,-11 -5,-17z"/>
    </g>
   </g>
   <g>
    <g>
     <path class="fil1" d="M1112 837l-87 0 0 -87 87 0c13,0 21,-8 21,-21 0,-13 -8,-22 -21,-22l-87 0 0 -43c0,-13 -9,-22 -22,-22 -13,0 -21,9 -21,22l0 43 -87 0 0 -43c0,-13 -9,-22 -22,-22 -13,0 -21,9 -21,22l0 43 -87 0 0 -43c0,-13 -9,-22 -22,-22 -13,0 -21,9 -21,22l0 43 -87 0c-13,0 -22,9 -22,22 0,13 9,21 22,21l87 0 0 87 -87 0c-13,0 -22,9 -22,22 0,13 9,21 22,21l87 0 0 44c0,13 8,21 21,21 13,0 22,-8 22,-21l0 -44 87 0 0 44c0,13 8,21 21,21 13,0 22,-8 22,-21l0 -44 87 0 0 44c0,13 8,21 21,21 13,0 22,-8 22,-21l0 -44 87 0c13,0 21,-8 21,-21 0,-13 -8,-22 -21,-22zm-260 0l-87 0 0 -87 87 0 0 87zm130 0l-87 0 0 -87 87 0 0 87z"/>
    </g>
   </g>
   <g>
   </g>
   <g>
   </g>
   <g>
   </g>
   <g>
   </g>
   <g>
   </g>
   <g>
   </g>
   <g>
   </g>
   <g>
   </g>
   <g>
   </g>
   <g>
   </g>
   <g>
   </g>
   <g>
   </g>
   <g>
   </g>
   <g>
   </g>
   <g>
   </g>
  </g>
 </g>
</svg>
