<?xml version="1.0" encoding="UTF-8"?>
<!DOCTYPE svg PUBLIC "-//W3C//DTD SVG 1.1//EN" "http://www.w3.org/Graphics/SVG/1.1/DTD/svg11.dtd">
<!-- Creator: CorelDRAW X8 -->
<svg xmlns="http://www.w3.org/2000/svg" xml:space="preserve" width="1600px" height="1600px" version="1.1" style="shape-rendering:geometricPrecision; text-rendering:geometricPrecision; image-rendering:optimizeQuality; fill-rule:evenodd; clip-rule:evenodd"
viewBox="0 0 1600 1600"
 xmlns:xlink="http://www.w3.org/1999/xlink">
 <defs>
  <style type="text/css">
   <![CDATA[
    .fil0 {fill:#00BD9C}
    .fil1 {fill:white}
   ]]>
  </style>
 </defs>
 <g id="Слой_x0020_1">
  <metadata id="CorelCorpID_0Corel-Layer"/>
  <g id="_2645198356864">
   <circle class="fil0" cx="800" cy="800" r="800"/>
   <g id="_2679842829264">
    <g>
     <g>
      <path class="fil1" d="M1009 654l-48 0c-2,-9 -6,-18 -11,-27l34 -34c4,-4 7,-9 7,-16 0,-5 -3,-11 -7,-15l-40 -40c-8,-9 -22,-9 -31,0l-34 34c-9,-5 -17,-8 -27,-11l0 -48c0,-12 -10,-22 -22,-22l-56 0c-13,0 -23,10 -23,22l0 48c-9,3 -18,6 -26,11l-34 -34c-9,-9 -23,-9 -32,0l-39 40c-5,4 -7,10 -7,15 0,7 2,12 7,16l33 34c-4,9 -8,18 -11,27l-48 0c-12,0 -22,10 -22,22l0 56c0,13 10,23 22,23l48 0c3,9 7,18 11,26l-33 34c-9,9 -9,23 0,32l39 39c9,9 23,9 32,0l34 -33c8,4 17,8 26,11l0 48c0,12 10,22 23,22l56 0c12,0 22,-10 22,-22l0 -48c9,-3 18,-7 27,-11l34 33c9,9 23,9 31,0l40 -39c4,-4 7,-10 7,-16 0,-6 -3,-12 -7,-16l-34 -34c5,-8 9,-17 11,-26l48 0c12,0 22,-10 22,-23l0 -56c0,-12 -10,-22 -22,-22l0 0zm-9 69l-51 0c-7,0 -13,5 -15,12 -3,15 -9,28 -17,41 -4,6 -3,14 3,19l35 36 -26 27 -36 -36c-5,-5 -13,-6 -20,-2 -12,8 -26,13 -40,16 -7,2 -12,9 -12,16l0 50 -38 0 0 -50c0,-7 -5,-14 -12,-16 -15,-3 -28,-8 -41,-16 -6,-4 -14,-3 -19,2l-36 36 -27 -27 36 -36c5,-5 6,-13 2,-19 -7,-13 -13,-26 -16,-41 -2,-7 -8,-12 -16,-12l-50 0 0 -38 50 0c8,0 14,-5 16,-12 3,-14 9,-28 16,-40 4,-7 3,-15 -2,-20l-36 -36 27 -26 36 36c5,5 13,6 19,2 13,-8 26,-14 41,-17 7,-2 12,-8 12,-15l0 -51 38 0 0 51c0,7 5,13 12,15 14,3 28,9 40,17 7,4 15,3 20,-2l36 -36 26 26 -35 36c-6,5 -7,13 -3,20 8,12 14,26 17,40 2,7 8,12 15,12l51 0 0 38z"/>
     </g>
    </g>
    <g>
     <g>
      <path class="fil1" d="M802 620c-47,0 -85,38 -85,84 0,47 38,85 85,85 46,0 84,-38 84,-85 0,-46 -38,-84 -84,-84zm0 137c-29,0 -53,-24 -53,-53 0,-29 24,-53 53,-53 29,0 53,24 53,53 0,29 -24,53 -53,53z"/>
     </g>
    </g>
    <g>
     <g>
      <path class="fil1" d="M440 689l-53 0c-8,0 -15,7 -15,15 0,9 7,16 15,16l53 0c8,0 15,-7 15,-16 0,-8 -7,-15 -15,-15z"/>
     </g>
    </g>
    <g>
     <g>
      <path class="fil1" d="M1216 689l-52 0c-9,0 -16,7 -16,15 0,9 7,16 16,16l52 0c9,0 16,-7 16,-16 0,-8 -7,-15 -16,-15z"/>
     </g>
    </g>
    <g>
     <g>
      <path class="fil1" d="M557 949c-6,-6 -16,-6 -23,0l-36 37c-7,6 -7,16 0,23 6,6 16,6 22,0l37 -37c6,-7 6,-17 0,-23z"/>
     </g>
    </g>
    <g>
     <g>
      <path class="fil1" d="M1106 400c-6,-6 -16,-6 -22,0l-37 37c-6,6 -6,16 0,22 6,6 16,6 22,0l37 -37c6,-6 6,-16 0,-22z"/>
     </g>
    </g>
    <g>
     <g>
      <path class="fil1" d="M802 274c-9,0 -16,7 -16,16l0 52c0,9 7,16 16,16 9,0 16,-7 16,-16l0 -52c0,-9 -7,-16 -16,-16z"/>
     </g>
    </g>
    <g>
     <g>
      <path class="fil1" d="M1106 986l-37 -37c-6,-6 -16,-6 -22,0 -6,6 -6,16 0,23l37 37c6,6 16,6 22,0 6,-7 6,-17 0,-23z"/>
     </g>
    </g>
    <g>
     <g>
      <path class="fil1" d="M557 437l-37 -37c-6,-6 -16,-6 -22,0 -7,6 -7,16 0,22l36 37c7,6 17,6 23,0 6,-6 6,-16 0,-22z"/>
     </g>
    </g>
    <g>
     <g>
      <path class="fil1" d="M1116 666c-17,-145 -132,-260 -275,-277 -9,-1 -17,5 -18,13 -1,9 5,17 14,18 130,16 233,119 248,249 1,8 8,14 15,14 1,0 2,0 2,0 9,-1 15,-9 14,-17z"/>
     </g>
    </g>
    <g>
     <g>
      <path class="fil1" d="M1102 725c-9,-1 -16,5 -17,14 -11,85 -59,160 -132,205 -31,20 -50,54 -50,91l0 65 -202 0 0 -67c0,-35 -19,-69 -49,-88 -85,-52 -135,-143 -135,-242 0,-144 107,-265 250,-283 9,-1 15,-9 14,-18 -1,-8 -9,-14 -18,-13 -158,19 -278,155 -278,314 0,55 15,109 42,156 26,46 63,85 108,113 21,13 34,36 34,61l0 69c-16,5 -28,21 -28,39l0 22c0,9 4,18 9,25 -5,7 -9,16 -9,25l0 23c0,22 19,41 41,41l50 0 0 35c0,21 17,38 37,38l65 0c21,0 38,-17 38,-38l0 -35 49 0c23,0 41,-19 41,-41l0 -23c0,-9 -3,-18 -9,-25 6,-7 9,-16 9,-25l0 -22c0,-18 -11,-34 -27,-39l0 -67c0,-26 13,-50 35,-64 81,-51 134,-134 146,-228 1,-9 -5,-16 -14,-18l0 0zm-262 587c0,4 -3,6 -6,6l-65 0c-3,0 -5,-2 -5,-6l0 -35 76 0 0 35zm91 -76c0,5 -5,9 -10,9 -28,0 -212,0 -239,0 -5,0 -9,-4 -9,-9l0 -23c0,-5 4,-9 9,-9l239 0c5,0 10,4 10,9l0 23zm0 -73c0,5 -5,9 -10,9l-239 0c-5,0 -9,-4 -9,-9l0 -22c0,-6 4,-10 9,-10l239 0c5,0 10,4 10,10l0 22z"/>
     </g>
    </g>
    <g>
    </g>
    <g>
    </g>
    <g>
    </g>
    <g>
    </g>
    <g>
    </g>
    <g>
    </g>
    <g>
    </g>
    <g>
    </g>
    <g>
    </g>
    <g>
    </g>
    <g>
    </g>
    <g>
    </g>
    <g>
    </g>
    <g>
    </g>
    <g>
    </g>
   </g>
  </g>
 </g>
</svg>
