<?xml version="1.0" encoding="UTF-8"?>
<!DOCTYPE svg PUBLIC "-//W3C//DTD SVG 1.1//EN" "http://www.w3.org/Graphics/SVG/1.1/DTD/svg11.dtd">
<!-- Creator: CorelDRAW X8 -->
<svg xmlns="http://www.w3.org/2000/svg" xml:space="preserve" width="1600px" height="1600px" version="1.1" style="shape-rendering:geometricPrecision; text-rendering:geometricPrecision; image-rendering:optimizeQuality; fill-rule:evenodd; clip-rule:evenodd"
viewBox="0 0 1600 1600"
 xmlns:xlink="http://www.w3.org/1999/xlink">
 <defs>
  <style type="text/css">
   <![CDATA[
    .fil0 {fill:#00BD9C}
    .fil1 {fill:white}
   ]]>
  </style>
 </defs>
 <g id="Слой_x0020_1">
  <metadata id="CorelCorpID_0Corel-Layer"/>
  <circle class="fil0" cx="800" cy="800" r="800"/>
  <g id="_2644694368384">
   <g>
    <path class="fil1" d="M1244 985l-113 0 0 -189c76,-8 113,-70 113,-187 0,-118 -45,-339 -132,-339 -86,0 -131,221 -131,339 0,117 37,179 113,187l0 189 -113 0 0 -263c0,-8 -6,-15 -13,-18l-603 -188c-5,-2 -12,-1 -16,3 -5,3 -8,9 -8,15l0 470 0 170c0,10 8,19 19,19l75 0 94 0 339 0 226 0 37 0 113 0c11,0 19,-9 19,-19l0 -170c0,-10 -8,-19 -19,-19zm-226 -376c0,-145 56,-301 94,-301 39,0 95,156 95,301 0,134 -51,151 -95,151 -43,0 -94,-17 -94,-151zm-75 376l-75 0 -38 0 0 -284 113 35 0 249zm-414 0l0 -379 113 36 0 343 -113 0zm151 -331l113 35 0 296 -113 0 0 -331zm-302 -95l113 36 0 390 -113 0 0 -426zm0 464l471 0 0 132 -301 0 0 -94c0,-11 -9,-19 -19,-19l-94 0c-10,0 -19,8 -19,19l0 94 -38 0 0 -132zm76 132l0 -75 56 0 0 75 -56 0zm433 0l0 -132 75 0 132 0 0 132 -207 0zm338 0l-94 0 0 -132 94 0 0 132z"/>
   </g>
   <g>
   </g>
   <g>
   </g>
   <g>
   </g>
   <g>
   </g>
   <g>
   </g>
   <g>
   </g>
   <g>
   </g>
   <g>
   </g>
   <g>
   </g>
   <g>
   </g>
   <g>
   </g>
   <g>
   </g>
   <g>
   </g>
   <g>
   </g>
   <g>
   </g>
  </g>
 </g>
</svg>
