<?xml version="1.0" encoding="UTF-8"?>
<!DOCTYPE svg PUBLIC "-//W3C//DTD SVG 1.1//EN" "http://www.w3.org/Graphics/SVG/1.1/DTD/svg11.dtd">
<!-- Creator: CorelDRAW X8 -->
<svg xmlns="http://www.w3.org/2000/svg" xml:space="preserve" width="1600px" height="1600px" version="1.1" style="shape-rendering:geometricPrecision; text-rendering:geometricPrecision; image-rendering:optimizeQuality; fill-rule:evenodd; clip-rule:evenodd"
viewBox="0 0 1600 1600"
 xmlns:xlink="http://www.w3.org/1999/xlink">
 <defs>
  <style type="text/css">
   <![CDATA[
    .fil0 {fill:#00BD9C}
    .fil1 {fill:white}
   ]]>
  </style>
 </defs>
 <g id="Слой_x0020_1">
  <metadata id="CorelCorpID_0Corel-Layer"/>
  <circle class="fil0" cx="800" cy="800" r="800"/>
  <g id="_2679950916240">
   <g>
    <g>
     <path class="fil1" d="M779 385c-36,0 -66,29 -66,66 0,36 30,65 66,65 36,0 66,-29 66,-65 0,-37 -30,-66 -66,-66zm0 93c-15,0 -27,-13 -27,-27 0,-15 12,-27 27,-27 15,0 27,12 27,27 0,14 -12,27 -27,27z"/>
    </g>
   </g>
   <g>
    <g>
     <path class="fil1" d="M1227 534l-386 -208c-1,0 -1,0 -1,0 -18,-9 -39,-14 -61,-14 -40,0 -76,17 -101,43l-123 107c-8,7 -8,19 -1,27 3,4 9,7 14,7 5,0 9,-2 13,-5l59 -51 -108 563c0,0 0,1 0,1 -2,14 -4,29 -4,45 0,4 0,9 1,13l-152 -226c1,1 3,1 5,1 53,0 96,-44 96,-97 0,-46 -33,-85 -76,-94l61 -53c8,-7 8,-19 2,-27 -7,-8 -20,-9 -28,-2l-122 106c0,0 0,0 0,0 -19,18 -30,43 -30,70 0,21 7,40 18,55 0,1 260,380 260,380 0,0 0,0 0,0 43,75 124,125 216,125 38,0 73,-9 106,-24 0,0 0,0 0,0l336 -149c2,-1 4,-1 5,-2 28,-14 47,-43 47,-76l0 -440c0,-33 -18,-61 -46,-75zm-903 206c0,-16 6,-31 17,-41l6 -5c9,-7 21,-12 35,-12 31,0 57,26 57,58 0,32 -26,58 -57,58 -32,0 -58,-26 -58,-58zm864 -177c8,0 15,1 21,4l2 1c0,0 0,0 0,0 14,8 23,24 23,41 0,25 -20,46 -46,46 -25,0 -46,-21 -46,-46 0,-26 21,-46 46,-46zm-409 -213c16,0 32,4 45,11l4 2c31,18 51,50 51,88 0,55 -45,100 -100,100 -55,0 -100,-45 -100,-100 0,-56 45,-101 100,-101zm0 911c-117,0 -212,-95 -212,-212 0,-117 95,-212 212,-212 117,0 212,95 212,212 0,117 -95,212 -212,212zm429 -170l-2 1c-6,2 -12,3 -18,3 -25,0 -46,-21 -46,-46 0,-26 21,-47 46,-47 26,0 46,21 46,47 0,18 -10,34 -26,42zm26 -113c-13,-9 -29,-14 -46,-14 -47,0 -85,38 -85,85 0,30 16,56 39,71l-155 69c27,-40 43,-88 43,-140 0,-16 -1,-30 -4,-45 0,0 0,0 0,-1l-41 -213c-2,-10 -12,-17 -22,-15 -11,2 -18,12 -16,23l16 80c-46,-49 -112,-80 -184,-80 -72,0 -138,31 -184,80l68 -352c24,38 67,64 116,64 49,0 92,-26 116,-64l20 103c2,9 10,15 19,15 1,0 2,0 4,0 10,-2 17,-12 15,-22l-36 -190c0,-1 0,-1 0,-1 -2,-8 -3,-16 -6,-23l236 126c-26,15 -44,43 -44,75 0,47 38,85 85,85 17,0 33,-5 46,-14l0 298z"/>
    </g>
   </g>
   <g>
    <g>
     <path class="fil1" d="M779 988c-34,0 -61,27 -61,61 0,33 27,61 61,61 34,0 61,-28 61,-61 0,-34 -27,-61 -61,-61zm0 83c-12,0 -22,-10 -22,-22 0,-13 10,-23 22,-23 12,0 23,10 23,23 0,12 -11,22 -23,22z"/>
    </g>
   </g>
   <g>
    <g>
     <path class="fil1" d="M934 1008l-17 -5 -8 -18 9 -16c5,-8 4,-17 -3,-24l-32 -32c-6,-6 -16,-8 -23,-3l-16 10 -19 -8 -4 -18c-3,-9 -10,-15 -19,-15l-46 0c-9,0 -16,6 -18,15l-5 18 -19 8 -16 -10c-7,-5 -17,-3 -23,3l-32 32c-7,7 -8,16 -3,24l9 16 -7 18 -18 5c-9,2 -15,10 -15,19l0 45c0,9 6,17 15,19l18 4 7 19 -9 15c-4,8 -3,18 3,24l33 32c6,7 16,8 23,3l15 -9 19 8 4 17c2,8 10,15 19,15l46 0c9,0 17,-7 19,-15l4 -17 19 -8 15 9c7,5 17,4 23,-3l33 -32c6,-6 8,-16 3,-24l-9 -15 8 -19 17 -4c9,-2 15,-10 15,-19l0 -45c0,-9 -6,-17 -15,-19zm-24 49l-12 3c-6,2 -11,6 -13,12l-16 36c-2,6 -1,12 2,18l6 10 -11 11 -11 -6c-5,-3 -11,-4 -17,-1l-37 15c-5,2 -10,7 -11,13l-3 12 -16 0 -3 -12c-1,-6 -6,-11 -11,-13l-37 -15c-5,-3 -12,-2 -17,1l-11 6 -11 -11 6 -10c3,-6 4,-12 2,-18l-16 -36c-2,-6 -7,-10 -13,-12l-12 -3 0 -15 12 -4c6,-1 11,-5 13,-11l16 -37c2,-5 1,-12 -2,-17l-6 -11 11 -11 11 7c5,3 12,3 17,1l37 -15c5,-3 10,-7 11,-13l3 -13 16 0 3 13c1,6 6,10 11,13l37 15c6,2 12,2 17,-1l12 -7 11 11 -7 11c-3,5 -4,12 -2,17l16 37c2,6 7,10 13,11l12 3 0 16z"/>
    </g>
   </g>
   <g>
    <g>
     <path class="fil1" d="M964 699c-3,-4 -8,-6 -13,-6 -5,0 -10,2 -14,6 -4,3 -6,8 -6,13 0,5 2,10 6,14 4,4 9,6 14,6 5,0 10,-2 13,-6 4,-4 6,-9 6,-14 0,-5 -2,-10 -6,-13z"/>
    </g>
   </g>
   <g>
    <g>
     <path class="fil1" d="M524 513c-4,-4 -9,-6 -14,-6 -5,0 -10,2 -13,6 -4,3 -6,8 -6,13 0,6 2,11 6,14 3,4 8,6 13,6 5,0 10,-2 14,-6 3,-4 6,-8 6,-14 0,-5 -3,-10 -6,-13z"/>
    </g>
   </g>
   <g>
   </g>
   <g>
   </g>
   <g>
   </g>
   <g>
   </g>
   <g>
   </g>
   <g>
   </g>
   <g>
   </g>
   <g>
   </g>
   <g>
   </g>
   <g>
   </g>
   <g>
   </g>
   <g>
   </g>
   <g>
   </g>
   <g>
   </g>
   <g>
   </g>
  </g>
 </g>
</svg>
