<?xml version="1.0" encoding="UTF-8"?>
<!DOCTYPE svg PUBLIC "-//W3C//DTD SVG 1.1//EN" "http://www.w3.org/Graphics/SVG/1.1/DTD/svg11.dtd">
<!-- Creator: CorelDRAW X8 -->
<svg xmlns="http://www.w3.org/2000/svg" xml:space="preserve" width="1600px" height="1600px" version="1.1" style="shape-rendering:geometricPrecision; text-rendering:geometricPrecision; image-rendering:optimizeQuality; fill-rule:evenodd; clip-rule:evenodd"
viewBox="0 0 1600 1600"
 xmlns:xlink="http://www.w3.org/1999/xlink">
 <defs>
  <style type="text/css">
   <![CDATA[
    .fil0 {fill:#00BD9C}
    .fil1 {fill:white}
   ]]>
  </style>
 </defs>
 <g id="Слой_x0020_1">
  <metadata id="CorelCorpID_0Corel-Layer"/>
  <circle class="fil0" cx="800" cy="800" r="800"/>
  <g id="_2679957192432">
   <g>
    <g>
     <path class="fil1" d="M1264 1031c-8,-25 -21,-47 -40,-65 -29,-29 -68,-46 -109,-46 -22,0 -42,5 -62,13l-153 -153 203 -201 48 -2c6,0 12,-3 14,-8l69 -115c4,-7 3,-16 -2,-21l-60 -60c-5,-5 -14,-6 -20,-2l-116 69c-5,3 -8,8 -8,14l-2 48 -202 202 -139 -139c15,-85 -42,-165 -127,-180 -39,-6 -79,2 -112,24 -8,5 -10,16 -5,24 2,2 4,4 6,5l77 43c17,10 21,38 7,63 -14,24 -40,37 -57,27l-72 -38c-8,-5 -18,-2 -23,6 -2,3 -2,6 -2,10 5,85 79,150 165,145 17,-1 35,-5 51,-12l126 126 -54 55 -13 -13c-13,-13 -35,-13 -49,0l-17 17c-13,13 -13,34 -2,47l-200 201c-14,13 -14,34 -1,48 0,0 0,0 1,1l57 57c13,14 34,14 48,1 0,0 1,-1 1,-1l201 -201c14,12 34,11 47,-2l17 -17c13,-13 14,-34 1,-48 -1,0 -1,0 -1,-1l-13 -12 55 -56 164 165c-14,85 43,165 128,179 50,8 101,-8 136,-44 7,-7 6,-18 -1,-24 -2,-2 -4,-3 -6,-4l-96 -26c-9,-3 -17,-10 -20,-19 -5,-13 -5,-27 -2,-40 8,-27 30,-46 49,-41l95 26c1,0 3,0 4,0 10,0 17,-8 17,-17 1,-3 0,-6 -1,-8zm-209 -511c3,-3 4,-7 5,-11l1 -45 96 -58 41 41 -56 96 -46 2c-5,0 -9,2 -12,5l-207 207 -29 -29 207 -208zm-589 677l-58 -58 202 -201 29 29 28 29 -201 201zm248 -204l-22 -22 -9 -9 -71 -72 17 -17 102 103 -17 17zm4 -77l-30 -29 55 -55 29 29 -54 55zm439 81c-5,-1 -10,-2 -15,-2 -37,3 -68,31 -75,67 -6,20 -4,42 3,62 8,19 23,33 43,39l63 17c-57,34 -132,15 -166,-42 -16,-27 -21,-59 -14,-90 1,-6 -1,-12 -5,-16l-382 -383c-6,-5 -14,-6 -20,-2 -18,9 -37,14 -57,14 -51,0 -97,-32 -114,-80l38 21c9,6 20,8 30,8 31,-2 60,-20 74,-48 23,-41 14,-90 -20,-109l-49 -28c63,-23 132,10 155,73 7,22 9,46 4,68 -2,6 0,12 4,16l384 383c5,6 13,7 20,3 17,-9 37,-14 56,-14 43,0 83,23 105,60l-62 -17z"/>
    </g>
   </g>
   <g>
   </g>
   <g>
   </g>
   <g>
   </g>
   <g>
   </g>
   <g>
   </g>
   <g>
   </g>
   <g>
   </g>
   <g>
   </g>
   <g>
   </g>
   <g>
   </g>
   <g>
   </g>
   <g>
   </g>
   <g>
   </g>
   <g>
   </g>
   <g>
   </g>
  </g>
 </g>
</svg>
