<?xml version="1.0" encoding="UTF-8"?>
<!DOCTYPE svg PUBLIC "-//W3C//DTD SVG 1.1//EN" "http://www.w3.org/Graphics/SVG/1.1/DTD/svg11.dtd">
<!-- Creator: CorelDRAW X8 -->
<svg xmlns="http://www.w3.org/2000/svg" xml:space="preserve" width="1600px" height="1600px" version="1.1" style="shape-rendering:geometricPrecision; text-rendering:geometricPrecision; image-rendering:optimizeQuality; fill-rule:evenodd; clip-rule:evenodd"
viewBox="0 0 1600 1600"
 xmlns:xlink="http://www.w3.org/1999/xlink">
 <defs>
  <style type="text/css">
   <![CDATA[
    .fil0 {fill:#00BD9C}
    .fil1 {fill:white}
   ]]>
  </style>
 </defs>
 <g id="Слой_x0020_1">
  <metadata id="CorelCorpID_0Corel-Layer"/>
  <circle class="fil0" cx="800" cy="800" r="800"/>
  <g id="_2771129241792">
   <g>
    <g>
     <g>
      <circle class="fil1" cx="1031" cy="894" r="13"/>
      <circle class="fil1" cx="926" cy="894" r="13"/>
      <circle class="fil1" cx="561" cy="1096" r="13"/>
      <circle class="fil1" cx="822" cy="894" r="13"/>
      <path class="fil1" d="M1236 673l18 0c22,0 40,-18 40,-40l0 -60c0,-22 -18,-40 -40,-40l-58 0c-8,-12 -18,-24 -30,-35l1 0c9,-5 15,-14 15,-24 0,-10 -6,-19 -15,-23l-3 -2c-8,-4 -14,-11 -18,-19 -5,-9 -14,-15 -24,-15 -10,0 -19,6 -24,15 -2,5 -5,9 -9,13 -26,-13 -53,-23 -80,-28 -92,-18 -124,-2 -151,18 -25,-18 -52,-27 -74,-26 -25,2 -46,-3 -70,-10 -29,-7 -62,-16 -113,-15 -34,1 -67,18 -95,51 -5,6 -5,15 1,20 6,5 15,4 20,-2 15,-18 41,-41 75,-41 4,0 9,0 13,0 -6,2 -12,7 -15,13 -4,8 -10,15 -18,19l-3 2c-9,4 -15,13 -15,23 0,10 6,19 15,24l3 1c8,4 14,11 18,19 5,9 14,15 24,15 10,0 19,-6 24,-15 4,-8 10,-15 18,-19l3 -1c9,-5 15,-14 15,-24 0,-10 -6,-19 -15,-23l-3 -2c-8,-4 -14,-11 -18,-19 -3,-5 -8,-10 -13,-12 30,2 52,8 72,13 25,7 49,13 79,11 14,-1 31,5 48,15 -4,3 -9,6 -14,9 -33,17 -53,51 -63,74l-272 0c2,-10 6,-20 10,-31 3,-7 0,-15 -7,-18 -7,-3 -15,0 -18,7 -6,14 -11,29 -14,42l-66 0c-22,0 -40,18 -40,40l0 60c0,22 18,40 40,40l18 0 38 273c3,19 10,37 20,54 -11,10 -20,23 -27,37l-44 0c-24,0 -44,20 -44,44l0 29c0,25 20,44 44,44l44 0c22,46 68,77 122,77 53,0 100,-31 122,-77l278 0c22,46 69,77 122,77 54,0 100,-31 122,-77l44 0c24,0 44,-19 44,-44l0 -29c0,-24 -20,-44 -44,-44l-44 0c-7,-14 -16,-27 -27,-37 10,-17 17,-35 19,-54l39 -273zm-582 -206l0 0 0 0c-13,7 -23,17 -30,29 -7,-12 -17,-22 -30,-29l-1 0 1 0c13,-7 23,-17 30,-29 7,12 17,22 30,29zm-225 660l-34 0c-9,0 -16,-8 -16,-17l0 -29c0,-9 7,-16 16,-16l34 0c-2,10 -3,20 -3,31 0,10 1,21 3,31zm786 -62l34 0c9,0 16,7 16,16l0 29c0,9 -7,17 -16,17l-34 0c2,-10 3,-21 3,-31 0,-11 -1,-21 -3,-31zm-123 -591c2,-1 4,-2 6,-3 0,0 0,-1 0,-1 10,-6 18,-15 24,-25 7,12 17,23 30,29l0 0 0 0c-6,4 -12,8 -17,12 0,0 0,0 0,0 -5,5 -10,11 -13,18 -7,-13 -17,-23 -30,-30l-1 0 1 0zm-260 9c13,-6 23,-14 33,-21 0,0 0,-1 1,-1 0,0 0,0 0,0 25,-20 49,-36 137,-19 22,4 42,11 62,20 -2,4 -3,8 -3,12 0,10 6,19 15,24l3 1c8,4 14,11 18,19 5,9 14,15 24,15 10,0 19,-6 24,-15l0 0c0,0 0,-1 0,-1 6,5 11,11 15,16l-374 0c16,-31 35,-44 45,-50zm-442 162c-7,0 -13,-5 -13,-12l0 -60c0,-7 6,-12 13,-12l78 0c0,0 0,0 0,0 0,0 0,0 0,0l298 0c0,0 0,0 0,0 0,0 0,0 0,0l423 0c0,0 0,0 0,0 0,0 0,0 0,0l65 0c7,0 12,5 12,12l0 60c0,7 -5,12 -12,12l-864 0zm171 558c-59,0 -108,-48 -108,-107 0,-60 49,-108 108,-108 59,0 107,48 107,108 0,59 -48,107 -107,107zm131 -76c3,-10 4,-21 4,-31 0,-11 -1,-21 -4,-31l259 0c-2,10 -3,20 -3,31 0,10 1,21 3,31l-259 0zm499 -31c0,59 -49,107 -108,107 -59,0 -107,-48 -107,-107 0,-60 48,-108 107,-108 59,0 108,48 108,108zm-54 -230l44 0 -11 76c-2,14 -7,28 -14,40 -21,-14 -46,-22 -73,-22 -53,0 -100,32 -122,77l-278 0c-22,-45 -69,-77 -122,-77 -27,0 -52,8 -73,22 -7,-12 -12,-26 -14,-40l-11 -76 607 0c8,0 14,-6 14,-13 0,-8 -6,-14 -14,-14l-611 0 -23 -166 772 0 -23 166 -48 0c-8,0 -14,6 -14,14 0,7 6,13 14,13z"/>
      <circle class="fil1" cx="1135" cy="894" r="13"/>
      <circle class="fil1" cx="1083" cy="1096" r="13"/>
      <path class="fil1" d="M1083 1025c-39,0 -71,32 -71,71 0,39 32,71 71,71 39,0 71,-32 71,-71 0,-39 -32,-71 -71,-71zm0 114c-24,0 -43,-19 -43,-43 0,-24 19,-44 43,-44 24,0 43,20 43,44 0,24 -19,43 -43,43z"/>
      <path class="fil1" d="M926 713c-7,0 -14,7 -14,14l0 18c0,8 7,14 14,14 8,0 14,-6 14,-14l0 -18c0,-7 -6,-14 -14,-14z"/>
      <path class="fil1" d="M561 1025c-39,0 -71,32 -71,71 0,39 32,71 71,71 39,0 71,-32 71,-71 0,-39 -32,-71 -71,-71zm0 114c-24,0 -43,-19 -43,-43 0,-24 19,-44 43,-44 24,0 43,20 43,44 0,24 -19,43 -43,43z"/>
      <circle class="fil1" cx="509" cy="894" r="13"/>
      <path class="fil1" d="M718 713c-8,0 -14,7 -14,14l0 18c0,8 6,14 14,14 7,0 14,-6 14,-14l0 -18c0,-7 -7,-14 -14,-14z"/>
      <circle class="fil1" cx="718" cy="894" r="13"/>
      <path class="fil1" d="M844 715l-44 0c-12,0 -22,10 -22,22l0 21c0,24 20,44 44,44 24,0 44,-20 44,-44l0 -21c0,-12 -10,-22 -22,-22zm-6 43l0 0c0,9 -7,16 -16,16 -9,0 -16,-7 -16,-16l0 -16 32 0 0 16z"/>
      <circle class="fil1" cx="613" cy="894" r="13"/>
     </g>
    </g>
   </g>
   <g>
   </g>
   <g>
   </g>
   <g>
   </g>
   <g>
   </g>
   <g>
   </g>
   <g>
   </g>
   <g>
   </g>
   <g>
   </g>
   <g>
   </g>
   <g>
   </g>
   <g>
   </g>
   <g>
   </g>
   <g>
   </g>
   <g>
   </g>
   <g>
   </g>
  </g>
 </g>
</svg>
