<?xml version="1.0" encoding="UTF-8"?>
<!DOCTYPE svg PUBLIC "-//W3C//DTD SVG 1.1//EN" "http://www.w3.org/Graphics/SVG/1.1/DTD/svg11.dtd">
<!-- Creator: CorelDRAW X8 -->
<svg xmlns="http://www.w3.org/2000/svg" xml:space="preserve" width="1600px" height="1600px" version="1.1" style="shape-rendering:geometricPrecision; text-rendering:geometricPrecision; image-rendering:optimizeQuality; fill-rule:evenodd; clip-rule:evenodd"
viewBox="0 0 1600 1600"
 xmlns:xlink="http://www.w3.org/1999/xlink">
 <defs>
  <style type="text/css">
   <![CDATA[
    .fil0 {fill:#00BD9C}
    .fil1 {fill:white}
   ]]>
  </style>
 </defs>
 <g id="Слой_x0020_1">
  <metadata id="CorelCorpID_0Corel-Layer"/>
  <circle class="fil0" cx="800" cy="800" r="800"/>
  <g id="_2806318968976">
   <g>
    <g>
     <path class="fil1" d="M1290 1043l0 -285c-1,-37 -30,-67 -67,-67 -32,0 -60,23 -66,55l-37 209c-15,-2 -30,2 -42,11l-126 89c-4,2 -7,7 -7,12l0 172c0,9 7,16 16,16l157 0c8,0 15,-7 15,-16l0 -20 103 -65c35,-26 55,-67 54,-111zm-71 84l0 0 -110 70c-4,3 -7,8 -7,14l0 12 -125 0 0 -147 119 -84c13,-10 31,-6 40,7 9,12 6,30 -6,39l-85 63 19 25 85 -63c26,-20 31,-57 12,-84 -2,-2 -4,-4 -6,-6 -2,-2 -3,-4 -5,-5l38 -216c4,-20 22,-32 41,-29 17,3 29,18 29,35l0 285c2,33 -13,64 -39,84z"/>
    </g>
   </g>
   <g>
    <g>
     <path class="fil1" d="M688 1055l-126 -89c-12,-9 -27,-13 -42,-11l-37 -209c-7,-36 -41,-60 -77,-54 -32,6 -55,33 -56,66l0 285c-1,44 19,85 54,111l103 65 0 20c0,9 7,16 16,16l156 0c9,0 16,-7 16,-16l0 -172c0,-5 -3,-10 -7,-12zm-25 168l-125 0 0 -12c0,-6 -3,-11 -7,-14l-110 -69c-26,-20 -41,-52 -39,-85l0 -285c0,-20 16,-36 35,-36 17,0 32,13 35,30l38 216c-2,1 -3,3 -5,5 -23,23 -23,61 0,85 2,2 4,3 6,5l85 63 19 -25 -85 -63c-12,-9 -15,-27 -6,-40 10,-13 27,-15 40,-6l119 84 0 147 0 0z"/>
    </g>
   </g>
   <g>
    <g>
     <path class="fil1" d="M820 315l-1 0 1 32c19,0 38,1 57,5l6 -31c-21,-4 -42,-6 -63,-6z"/>
    </g>
   </g>
   <g>
    <g>
     <path class="fil1" d="M755 322c-21,4 -42,10 -62,19l12 28c18,-7 37,-13 56,-17l-6 -30z"/>
    </g>
   </g>
   <g>
    <g>
     <path class="fil1" d="M1030 854c-13,14 -28,27 -45,37l18 26c18,-12 34,-25 50,-41l-23 -22z"/>
    </g>
   </g>
   <g>
    <g>
     <path class="fil1" d="M945 340l-12 29c18,7 35,16 51,27l18 -26c-18,-12 -37,-22 -57,-30z"/>
    </g>
   </g>
   <g>
    <g>
     <path class="fil1" d="M1118 644c0,20 -2,39 -6,58l31 6c4,-21 6,-42 6,-64l0 -1 -31 1z"/>
    </g>
   </g>
   <g>
    <g>
     <path class="fil1" d="M1052 411l-22 22c13,14 26,29 37,45l26 -18c-12,-18 -26,-34 -41,-49z"/>
    </g>
   </g>
   <g>
    <g>
     <path class="fil1" d="M934 919c-18,7 -37,13 -56,17l6 31c22,-5 42,-11 62,-19l-12 -29z"/>
    </g>
   </g>
   <g>
    <g>
     <path class="fil1" d="M1123 517l-29 12c8,18 14,37 18,56l30 -6c-4,-21 -10,-42 -19,-62z"/>
    </g>
   </g>
   <g>
    <g>
     <path class="fil1" d="M1095 758c-8,18 -17,35 -28,51l27 18c11,-18 22,-37 30,-57l-29 -12z"/>
    </g>
   </g>
   <g>
    <g>
     <path class="fil1" d="M820 942c-19,0 -39,-2 -58,-6l-6 31c21,4 43,6 64,6l0 0 0 -31z"/>
    </g>
   </g>
   <g>
    <g>
     <path class="fil1" d="M573 810l-26 17c12,18 26,35 41,50l22 -22c-14,-14 -26,-29 -37,-45z"/>
    </g>
   </g>
   <g>
    <g>
     <path class="fil1" d="M637 371c-18,12 -35,26 -50,41l22 22c14,-14 29,-26 45,-37l-17 -26z"/>
    </g>
   </g>
   <g>
    <g>
     <path class="fil1" d="M497 581c-4,21 -6,42 -6,63l0 1 32 -1c-1,-19 1,-38 5,-57l-31 -6z"/>
    </g>
   </g>
   <g>
    <g>
     <path class="fil1" d="M546 462c-12,18 -22,37 -30,57l29 12c7,-18 16,-35 27,-52l-26 -17z"/>
    </g>
   </g>
   <g>
    <g>
     <path class="fil1" d="M528 703l-30 6c4,21 10,42 18,61l29 -12c-7,-18 -13,-36 -17,-55z"/>
    </g>
   </g>
   <g>
    <g>
     <path class="fil1" d="M655 892l-17 26c18,12 37,22 57,30l12 -29c-18,-7 -36,-16 -52,-27z"/>
    </g>
   </g>
   <g>
    <g>
     <path class="fil1" d="M1055 581c0,-48 -30,-99 -79,-108 -5,-53 -49,-94 -103,-95 -19,0 -37,5 -53,14 -16,-9 -34,-14 -53,-14 -55,1 -101,43 -106,98 -45,15 -76,57 -76,105 0,23 7,45 19,63 -12,19 -19,40 -19,63 0,48 30,99 79,108 5,53 49,95 103,95 19,0 37,-5 53,-14 16,9 34,14 53,14 55,-1 101,-43 106,-98 45,-15 76,-57 76,-105 0,-23 -7,-44 -19,-63 12,-18 19,-40 19,-63zm-251 -62c0,17 -14,31 -31,31 -17,0 -31,-14 -31,-31l-32 0c0,34 28,62 63,62 11,0 22,-3 31,-8l0 295c-11,7 -24,11 -37,11 -37,-1 -67,-29 -71,-65 33,-9 53,-44 43,-77 -7,-27 -32,-46 -60,-46l0 31c17,0 31,14 31,32 0,17 -14,31 -31,31 -37,0 -63,-40 -63,-78 0,-20 7,-38 20,-53 5,-6 5,-14 0,-20 -13,-15 -20,-33 -20,-53 0,-37 26,-70 63,-77 8,-2 13,-9 13,-17 -1,-42 33,-77 75,-78 13,0 26,4 37,11l0 99zm200 135c13,15 20,33 20,53 0,37 -26,70 -63,77 -8,2 -13,9 -13,17 1,42 -33,77 -75,78 -13,0 -26,-4 -37,-11l0 -177c0,-17 14,-31 31,-31 17,0 31,14 31,31l32 0c0,-35 -28,-63 -63,-63 -11,0 -22,3 -31,9l0 -217c11,-7 24,-11 37,-11 37,1 67,29 71,65 -33,10 -53,44 -43,77 7,27 32,46 60,46l0 -31c-17,0 -31,-14 -31,-32 0,-17 14,-31 31,-31 37,0 63,41 63,78 0,20 -7,38 -20,53 -5,6 -5,14 0,20z"/>
    </g>
   </g>
   <g>
   </g>
   <g>
   </g>
   <g>
   </g>
   <g>
   </g>
   <g>
   </g>
   <g>
   </g>
   <g>
   </g>
   <g>
   </g>
   <g>
   </g>
   <g>
   </g>
   <g>
   </g>
   <g>
   </g>
   <g>
   </g>
   <g>
   </g>
   <g>
   </g>
  </g>
 </g>
</svg>
