<?xml version="1.0" encoding="UTF-8"?>
<!DOCTYPE svg PUBLIC "-//W3C//DTD SVG 1.1//EN" "http://www.w3.org/Graphics/SVG/1.1/DTD/svg11.dtd">
<!-- Creator: CorelDRAW X8 -->
<svg xmlns="http://www.w3.org/2000/svg" xml:space="preserve" width="1600px" height="1600px" version="1.1" style="shape-rendering:geometricPrecision; text-rendering:geometricPrecision; image-rendering:optimizeQuality; fill-rule:evenodd; clip-rule:evenodd"
viewBox="0 0 1600 1600"
 xmlns:xlink="http://www.w3.org/1999/xlink">
 <defs>
  <style type="text/css">
   <![CDATA[
    .fil0 {fill:#00BD9C}
    .fil1 {fill:white}
   ]]>
  </style>
 </defs>
 <g id="Слой_x0020_1">
  <metadata id="CorelCorpID_0Corel-Layer"/>
  <circle class="fil0" cx="800" cy="800" r="800"/>
  <g id="_2806271332320">
   <g>
    <g>
     <path class="fil1" d="M1190 395l-747 0c-29,0 -53,24 -53,54l0 178c0,29 24,53 53,53l747 0c29,0 53,-24 53,-53l0 -178c0,-30 -24,-54 -53,-54zm18 232c0,9 -8,17 -18,17l-747 0c-10,0 -18,-8 -18,-17l0 -178c0,-10 8,-18 18,-18l747 0c10,0 18,8 18,18l0 178z"/>
    </g>
   </g>
   <g>
    <g>
     <path class="fil1" d="M479 1213l0 -551 -36 0 0 569c0,10 8,18 18,18l302 0 0 -36 -284 0z"/>
    </g>
   </g>
   <g>
    <g>
     <rect class="fil1" x="514" y="484" width="35.5672" height="106.702"/>
    </g>
   </g>
   <g>
    <g>
     <rect class="fil1" x="479" y="520" width="106.702" height="35.5672"/>
    </g>
   </g>
   <g>
    <g>
     <rect class="fil1" x="621" y="520" width="462.377" height="35.5672"/>
    </g>
   </g>
   <g>
    <g>
     <rect class="fil1" x="1119" y="520" width="35.5672" height="35.5672"/>
    </g>
   </g>
   <g>
    <g>
     <path class="fil1" d="M585 822c-29,0 -53,24 -53,54l0 355 35 0 0 -355c0,-10 8,-18 18,-18l178 0 0 -36 -178 0z"/>
    </g>
   </g>
   <g>
    <g>
     <rect class="fil1" x="532" y="733" width="71.1357" height="35.5672"/>
    </g>
   </g>
   <g>
    <g>
     <rect class="fil1" x="639" y="733" width="160.054" height="35.5672"/>
    </g>
   </g>
   <g>
    <g>
     <rect class="fil1" x="603" y="1036" width="35.5672" height="106.702"/>
    </g>
   </g>
   <g>
    <g>
     <path class="fil1" d="M1048 716l-143 0c-29,0 -53,23 -53,53l0 71c0,10 8,18 18,18l213 0c10,0 18,-8 18,-18l0 -71c0,-30 -24,-53 -53,-53zm17 106l-177 0 0 -53c0,-10 8,-18 17,-18l143 0c9,0 17,8 17,18l0 53 0 0z"/>
    </g>
   </g>
   <g>
    <g>
     <path class="fil1" d="M1083 822l-213 0c-49,0 -89,40 -89,89l0 249c0,49 40,89 89,89l213 0c49,0 89,-40 89,-89l0 -249c0,-49 -40,-89 -89,-89zm54 338c0,30 -24,53 -54,53l-213 0c-30,0 -54,-23 -54,-53l0 -249c0,-29 24,-53 54,-53l213 0c30,0 54,24 54,53l0 249z"/>
    </g>
   </g>
   <g>
    <g>
     <rect class="fil1" x="1154" y="662" width="35.5672" height="160.054"/>
    </g>
   </g>
   <g>
    <g>
     <path class="fil1" d="M941 911l-142 0 0 36 142 0c10,0 18,8 18,18l0 142c0,10 -8,18 -18,18l-142 0 0 35 142 0c29,0 53,-24 53,-53l0 -142c0,-30 -24,-54 -53,-54z"/>
    </g>
   </g>
   <g>
    <g>
     <rect class="fil1" x="1030" y="911" width="71.1357" height="35.5672"/>
    </g>
   </g>
   <g>
    <g>
     <rect class="fil1" x="1030" y="982" width="71.1357" height="35.5672"/>
    </g>
   </g>
   <g>
    <g>
     <rect class="fil1" x="1030" y="1053" width="71.1357" height="35.5672"/>
    </g>
   </g>
   <g>
   </g>
   <g>
   </g>
   <g>
   </g>
   <g>
   </g>
   <g>
   </g>
   <g>
   </g>
   <g>
   </g>
   <g>
   </g>
   <g>
   </g>
   <g>
   </g>
   <g>
   </g>
   <g>
   </g>
   <g>
   </g>
   <g>
   </g>
   <g>
   </g>
  </g>
 </g>
</svg>
