<?xml version="1.0" encoding="UTF-8"?>
<!DOCTYPE svg PUBLIC "-//W3C//DTD SVG 1.1//EN" "http://www.w3.org/Graphics/SVG/1.1/DTD/svg11.dtd">
<!-- Creator: CorelDRAW X8 -->
<svg xmlns="http://www.w3.org/2000/svg" xml:space="preserve" width="1600px" height="1600px" version="1.1" style="shape-rendering:geometricPrecision; text-rendering:geometricPrecision; image-rendering:optimizeQuality; fill-rule:evenodd; clip-rule:evenodd"
viewBox="0 0 1600 1600"
 xmlns:xlink="http://www.w3.org/1999/xlink">
 <defs>
  <style type="text/css">
   <![CDATA[
    .fil0 {fill:#00BD9C}
    .fil1 {fill:white}
   ]]>
  </style>
 </defs>
 <g id="Слой_x0020_1">
  <metadata id="CorelCorpID_0Corel-Layer"/>
  <circle class="fil0" cx="800" cy="800" r="800"/>
  <g id="_2771131588624">
   <g>
    <g>
     <g>
      <path class="fil1" d="M1258 984l-68 0c8,-15 8,-33 0,-47 0,-1 0,-1 0,-2l-24 -44 76 0c1,0 2,0 3,-1 7,-1 13,-7 13,-15l0 -61 0 0 0 -1 0 -123c0,-8 -6,-15 -14,-15l-249 -30 0 -187c0,-9 -7,-16 -16,-16l-278 0c-9,0 -15,7 -15,16 0,8 6,15 15,15l15 0 0 279 -46 0 0 -31c0,-9 -7,-16 -15,-16l-263 0c-26,0 -47,21 -47,47l0 123c0,9 7,16 16,16l51 0 -31 56c0,0 0,0 0,1 -6,11 -6,24 -2,36l-18 0c-9,0 -16,7 -16,15 0,9 7,16 16,16l897 0c8,0 15,-7 15,-16 0,-8 -7,-15 -15,-15zm-402 -511l108 0 0 170 -108 0 0 -170zm-109 0l78 0 0 263c0,9 6,16 15,16 9,0 15,-7 15,-16l0 -62 123 0 249 30 0 94 -31 0 0 -62c0,-8 -7,-15 -16,-15 -8,0 -15,7 -15,15l0 78c0,8 7,15 15,15l47 0 0 31 -78 0 -56 -103c-11,-27 -38,-44 -67,-44 -29,0 -56,17 -67,44l-56 103 -47 0 0 -62c0,-8 -7,-15 -16,-15 -8,0 -15,7 -15,15l0 62 -78 0 0 -387zm321 314c0,23 -19,42 -42,42 -24,0 -43,-19 -43,-42 0,-24 19,-43 43,-43 23,0 42,19 42,43zm-398 -4l46 0 0 77 -46 0 0 -77zm-294 77l0 -108c0,-9 7,-16 16,-16l247 0 0 124 -37 0 -30 -56c-10,-22 -32,-37 -57,-37 -24,0 -46,15 -56,37l-30 56 -53 0 0 0zm170 -31c0,17 -14,31 -31,31 -17,0 -31,-14 -31,-31 0,-17 14,-31 31,-31 17,0 31,14 31,31zm-123 155c-9,0 -16,-7 -16,-16 0,-8 7,-15 16,-15 8,0 15,7 15,15 0,9 -7,16 -15,16zm142 0l-99 0c2,-5 3,-10 3,-16 0,-22 -17,-42 -39,-45l33 -61c11,18 31,29 52,29 22,0 42,-11 53,-29l33 61c-23,3 -39,23 -39,45 0,6 1,11 3,16zm43 0c-8,0 -15,-7 -15,-16 0,-8 7,-15 15,-15 9,0 16,7 16,15 0,9 -7,16 -16,16zm254 -49c0,1 0,1 -1,2 -7,14 -7,32 0,47l-209 0c4,-12 3,-25 -2,-36 -1,-1 -1,-1 -1,-1l-30 -56 267 0 -24 44zm48 49c-13,0 -23,-11 -23,-23 0,-13 10,-24 23,-24 13,0 23,11 23,24 0,12 -10,23 -23,23zm185 -51c-9,15 -10,35 -2,51l-134 0c7,-16 7,-36 -3,-51 -9,-16 -25,-26 -43,-26l0 0 47 -88c12,25 38,41 66,41 28,0 53,-16 65,-41l48 88c-18,0 -35,10 -44,26zm47 51c-13,0 -23,-11 -23,-23 0,-13 10,-24 23,-24 13,0 23,11 23,24 0,12 -10,23 -23,23z"/>
      <path class="fil1" d="M1258 1169l-897 0c-9,0 -16,7 -16,16 0,8 7,15 16,15l897 0c8,0 15,-7 15,-15 0,-9 -7,-16 -15,-16z"/>
      <path class="fil1" d="M1258 1046l-170 0c-9,0 -16,7 -16,15 0,9 7,16 16,16l170 0c8,0 15,-7 15,-16 0,-8 -7,-15 -15,-15z"/>
      <path class="fil1" d="M1258 1107l-170 0c-9,0 -16,7 -16,16 0,9 7,15 16,15l170 0c8,0 15,-6 15,-15 0,-9 -7,-16 -15,-16z"/>
      <path class="fil1" d="M1026 1046l-665 0c-9,0 -16,7 -16,15 0,9 7,16 16,16l665 0c8,0 15,-7 15,-16 0,-8 -7,-15 -15,-15z"/>
      <path class="fil1" d="M361 1138l170 0c8,0 15,-6 15,-15 0,-9 -7,-16 -15,-16l-170 0c-9,0 -16,7 -16,16 0,9 7,15 16,15z"/>
      <path class="fil1" d="M1026 1107l-433 0c-9,0 -16,7 -16,16 0,9 7,15 16,15l433 0c8,0 15,-6 15,-15 0,-9 -7,-16 -15,-16z"/>
      <path class="fil1" d="M1258 458c8,0 15,-7 15,-16 0,-8 -7,-15 -15,-15 -77,0 -139,-62 -139,-139 0,-9 -7,-16 -16,-16 -8,0 -15,7 -15,16 0,94 76,170 170,170z"/>
      <path class="fil1" d="M1010 303l31 0c9,0 16,-7 16,-15 0,-9 -7,-16 -16,-16l-31 0c-8,0 -15,7 -15,16 0,8 7,15 15,15z"/>
      <path class="fil1" d="M1029 407c-2,4 -1,9 1,12 2,4 5,6 9,7 4,2 9,1 12,-1l27 -16c7,-4 10,-13 6,-21 -5,-7 -14,-10 -21,-5l-27 15c-4,2 -6,6 -7,9z"/>
      <path class="fil1" d="M1150 460c-6,0 -11,3 -14,8l-15 26c-3,5 -3,11 0,16 2,5 8,8 13,8 6,0 11,-3 13,-8l16 -27c3,-5 3,-11 0,-15 -3,-5 -8,-8 -13,-8z"/>
      <path class="fil1" d="M1258 489c-9,0 -16,7 -16,15l0 31c0,9 7,16 16,16 8,0 15,-7 15,-16l0 -31c0,-8 -7,-15 -15,-15z"/>
     </g>
    </g>
   </g>
   <g>
   </g>
   <g>
   </g>
   <g>
   </g>
   <g>
   </g>
   <g>
   </g>
   <g>
   </g>
   <g>
   </g>
   <g>
   </g>
   <g>
   </g>
   <g>
   </g>
   <g>
   </g>
   <g>
   </g>
   <g>
   </g>
   <g>
   </g>
   <g>
   </g>
  </g>
 </g>
</svg>
